<?xml version="1.0" encoding="utf-8"?>
<!-- Generator: Adobe Illustrator 22.0.1, SVG Export Plug-In . SVG Version: 6.00 Build 0)  -->
<svg version="1.1" id="Layer_1" xmlns="http://www.w3.org/2000/svg" xmlns:xlink="http://www.w3.org/1999/xlink" x="0px" y="0px"
	 viewBox="0 0 300 300" style="enable-background:new 0 0 300 300;" xml:space="preserve">
<g>
	<g>
		<path d="M60.2,231.4c-2,1.7-4.1,3.2-6.4,4.6c0.2,1.3,0.4,2.5,0.7,3.8c0.1,0.7-0.4,1-0.8,1.3c-0.3,0.3-0.8,0.2-1.1-0.1
			c-0.7-0.8-1.3-0.4-2.1-0.1c0.9,0.6,2.3,0.4,2.2,2.2c0.6-0.8,0.9-1.3,1.3-1.7c0.3-0.3,0.8-0.6,1,0.1c0.3,1.6,0.6,3.2,0.8,4.8
			c0.1,1.1,0.7,2.2-0.1,3.3c1.1,0.3,1.8-0.2,2.4-0.7c1.4-1.1,2.9-2.1,4.2-3.2c1.2-1,2.6-1.9,1.7-4c-0.4-0.9-0.7-2-0.6-3.1
			c-2.2-0.6,0.6-1.6-0.2-2.4c-0.1-0.1-0.2-0.4-0.3-0.6c-0.2-1-0.7-2-0.4-3.1C61.9,232.1,61,231.8,60.2,231.4z"/>
		<path d="M34.3,246.1c0.3,1.6,1.4,2.1,2.8,1.4c0.3-0.1,0.5-0.4,0.8-0.1c1,1.1,1,0.1,1.1-0.6c0.2-1.2,0.3-2.5,0.6-3.7
			c-1.9,0.8-3.9,1.6-5.8,2.3C34,245.5,34.2,245.7,34.3,246.1z"/>
		<path d="M99.6,234.4c-0.8-3.9-1.1-7.9-0.1-11.9c0.3-1.2,0.9-2.4,0.9-3.8c-1.2,0.4-2.3,0.6-3.3,1.5c-1,0.9-2.1,1.9-3.2,2.6
			c-1.8,1.1-3.6,2.1-5.1,3.6c-1.6,1.7-3.3,3.4-5.1,4.9c-2,1.7-3.6,3.9-5.7,5.5c-1.5,1.1-2.9,2.3-4.1,3.7c-0.7,0.7-0.9,1.8-1.7,2.3
			c-1.8,1.1-2.7,2.7-3.1,4.7c-0.1,0.6-0.5,1.1-1.1,1.2c-1.2,0.1-2.1,0.9-3,1.6c-0.7,0.7-1.4,1.4-2.3,1.8c-1.7,1-3.6,1.7-5.3,2.8
			c-0.7,0.5-1.8,0.5-2.6,0.9c-0.5,0.2-0.9-0.1-0.9-0.7c0.1-1-0.8-0.6-1.2-0.8c-0.3-0.1-0.5,0.1-0.6,0.4c-0.1,0.6,0.3,0.9,0.7,1.1
			c0.2,0.1,0.3,0.1,0.5,0.2c0.4,0.2,0.5,0.5,0.2,0.9c-0.4,0.5-0.7,1.2-1.3,1.5c-1.9,0.8-3.3,2.2-4.6,3.7c-0.3,0.3-0.5,0.5-0.9,0.2
			c-1-0.6-1.2,0-1.4,0.8c-0.3,1-1.2,1.6-2,1.3c-1-0.4-1.9,0.1-2.2,1.3c-0.5,2.1,0.8,3.9,1.1,5.9c0,0.2,0.4,0.4,0.6,0.5
			c0.6,0.3,0.7,0.8,0.2,1.3c-1.1,1.1-1.7,2.5-2.4,3.8c-0.4,0.9-0.9,1.8-1.7,2.4c-0.9,0.7-1.6,1.6-2.1,2.5c-1.7,3-3.3,3.7-6.6,3.3
			c-1.9-0.3-2.5-1.1-1.7-2.9c0.3-0.7,0.5-1.4,0.7-2.2c0.1-0.6,0.3-1.3-0.4-1.6c-0.7-0.3-1.4-0.3-2,0.1c-0.3,0.3-0.7,0.6-0.9,1
			c-0.4,0.5-0.9,0.9-1.5,1c-1.3,0.4-2.8,0.3-3.6,1.7c-0.1,0.1-0.4,0.2-0.6,0.2c-1.6,0-2.6,1.1-3.6,2.1c-1.6,1.6-3.2,3.1-4.7,4.7
			c-0.2,0.2-0.4,0.1-0.6,0c-0.4-0.4-1-0.3-1.5-0.3c-0.9,0-1.4-0.5-0.9-1.4c0.4-0.9,0-1-0.7-0.9c-0.6,0-1.2,0.2-2.1-0.1
			c1.4-0.4,2.6-0.3,3.7-0.7c0.5-0.1,0.7-0.3,0.6-0.8c-0.2-1.5,0.3-2.8,1.1-4c0.4-0.6,0.7-1.1,0.4-1.8c-0.2-0.1-0.4,0-0.4,0.1
			c-0.1,0.4-0.2,0.9-0.7,0.6c-0.5-0.2-0.4-0.7-0.1-1c0.4-0.3,0.4-1.3,1-1c0.5,0.2,1.1,0.7,1.2,1.5c0,0.2,0,0.4,0,0.5
			c0,0.9-0.2,1.9-0.5,2.7c-0.1,0.2-0.2,0.5,0.1,0.7c0.2,0.2,0.4,0.1,0.6-0.1c0.7-0.9,1.7-1.6,1.5-3c-0.1-1.2,0-2.5,0.2-3.7
			c0.2-2.4-0.4-4.7-1.1-6.9c-0.1-0.4-0.4-0.7-0.9-0.7c-0.8,0.1-0.3,0.6-0.3,0.9c0,0.7,0.1,1.4-0.5,1.9c-0.2,0.2-0.3,0.6,0.1,0.9
			c0.3-0.1,0.3-0.7,0.8-0.6c0.4,0.2,0.2,0.6,0.3,0.9c0.3,1-0.5,1.5-1,2.1c-0.4-0.1-0.9,0.2-1.3-0.2c0.1-0.5,1.7-0.9,0.6-1.3
			c-1.2-0.5-1.4-1.4-1.9-2.2c-0.4-0.6-0.2-1.4-0.9-1.9c-0.3-0.2-0.7-0.5-0.3-0.8c0.3-0.3,0.5,0.1,0.8,0.3c0.4,0.3,1,0.8,1.4,0.3
			c0.6-0.7,1.3-1.1,1.9-1.6c0.3-0.3,0.6-0.6,0.2-1c-0.4-0.4-0.7-0.1-1,0.2c-1.4,1.5-1.7,1.5-3.9,0.4c1.9-0.7,1.9-0.8,0.6-2.4
			c-0.2-0.3-0.5-0.6-0.1-0.9c0.3-0.3,0.2-0.6-0.1-0.8c-0.2-0.2-0.5-0.3-0.2-0.6c0.2-0.3,0.6-0.2,0.9,0c0.5,0.3,0.5,0.8,0.4,1.2
			c-0.2,0.8,0.4,1.2,0.8,1.7c0.4,0.5,1.7,0.3,1.9-0.1c0.4-1,0.7-2.2,0.4-3.2c-0.4-1.2,0-2.2,0.4-3.3c1.2-3.1,3-5.6,5.3-7.4
			c0,0-0.1,0-0.1,0.1c-1.7,0.8-3.4,1.7-5,2.6c-1.5,2-2.9,4-4.2,6.1c0.7-0.1,1.1-0.6,1.5-1.4c0.3-0.6,1.3-0.3,2-1
			c0,1-0.5,1.2-0.8,1.4c-0.2,0.2-0.5,0.3-0.2,0.6c0.2,0.2,0.7,0.4,0.4,0.8c-0.2,0.3-0.6,0-0.8-0.1c-0.8-0.3-1,0.4-1.4,0.8
			c-0.6,0.6-1,0.5-1.3,0c-0.3,0.5-0.6,0.9-0.9,1.4c0,0.1,0.1,0.1,0.1,0.2c0,0.6-0.1,1.2-0.8,1.6c-0.2,0.1-0.4,0.3-0.7,0.4
			c-0.5,0.9-1.1,1.8-1.6,2.7c0,0,0,0,0,0c1.8,0.9,0.1,0.9-0.5,1.3c0.7,0.6,1.5,0.5,2.1,0.7c0.3,0.1,0.9-0.1,0.8,0.4
			c-0.1,0.6,0.7,1.3-0.1,1.8c-1.4,0.9-2.7,1.7-4.4,1.9c-0.2,0.9-1,1-1.6,1.3v12.5c0.1-0.9,1.3-1.4,0.7-2.5c0,0,0.2-0.3,0.2-0.2
			c0.8,0.2,1.6-0.4,2.3,0.2c0.3,0.2,0.8,0.3,0.6,0.7c-0.1,0.5-0.5,0.4-0.9,0.2c-0.5-0.2-0.8,0-1.1,0.5c-0.2,0.4-0.3,0.7,0.3,1
			c0.3,0.1,0.4,0.5,0.4,0.8c0.2,0.9,0.7,1.2,1.4,0.6c0.5-0.5,0.7-0.4,1,0.2c0.5,1.2,0.8,1.2,1.5,0.2c0.2-0.3,0.4-0.5,0.7-0.4
			c0.4,0.1,0.4,0.4,0.3,0.7c-0.1,0.5,0.3,0.7,0.6,0.9c0.3,0.2,0.5,0.4,0.3,0.7c-0.2,0.3-0.5,0.3-0.8,0c-0.8-0.6-1.3-0.5-1.8,0.4
			c-0.1,0.2-0.7,0.2-0.4,0.7c0.2,0.3,0.5,0.1,0.7-0.1c0.3-0.1,0.6-0.4,1.1-0.1c-0.9,1.6-3,2.2-3.9,4.1c1.1-0.3,1.9-0.6,2.8-0.5
			c0.6,0,0.8-0.5,0.9-1c0-0.3,0.2-0.6,0.5-0.5c0.3,0.1,0.3,0.5,0.2,0.7c-0.6,0.7-0.2,2.6-2.1,1.6c-0.2-0.1-0.5,0-0.6,0.3
			c-0.4,1.2-1.3,1.3-2.4,0.7c0.2,1.3,1.4,1.6,1.8,2.6h12.5c0.6-2.1,1.7-4,3.2-5.7c-0.2,1.1,0.1,1.8,1.1,2.3c0.7,0.4,0.9,1,0.5,1.8
			c-0.3,0.4-0.3,1-0.4,1.5h27.7c0.5-1.8,0.8-3.7,1.4-5.5c1.1-3.1,2.3-6.1,3.3-9.2c1.3-4.4,3.6-8.4,5.1-12.7c0.3-0.7,0.8-1.7,1.5-1.8
			c1.5-0.2,2.3-1.4,3.4-2.1c0.7-0.5,1-0.3,1,0.5c-0.1,1.3,0.6,1.5,1.7,1.3c0.9-0.1,2-0.3,2.6,0.6c0.8,1.1,1.3,1.2,2,0
			c0.4-0.7,1.3-0.8,2-0.5c0.7,0.3,0.8,0.9,0.8,1.6c0,0.8-0.4,1.3-1.1,1.4c-0.8,0.2-1.2,0.6-1.3,1.4c0,0.3-0.2,0.8-0.4,1
			c-1.3,0.6-1.5,1.9-1.6,3c-0.2,1.1-0.2,2.2-1.1,2.9c-0.2,0.1-0.3,0.5,0,0.7c0.2,0.2,0.5,0,0.7-0.1c1.1-0.5,1.1-1.6,1.3-2.6
			c0.2-1.3,1.9-3.1,2.8-2.7c1.5,0.7,1.9-0.3,2.5-1.1c0.3-0.4,0.7-0.6,1.1-0.9c1.1-0.9,2-1.9,2.5-3.6c-0.5,0.4-0.8,0.6-1.2,0.8
			c-0.8,0.5-1.7,0.6-2.5,0.1c-0.7-0.5-0.5-1.2-0.4-1.9c0.2-0.7,0-1.3-0.5-1.8c-1.3-1.2-2.6-2.5-2.9-4.2c-0.2-0.9-0.5-1.1-1.3-1.1
			c-1,0-1.8-0.3-2.6-0.9c-1.2-0.9-1.1-1.1,0.2-1.9c1.3-0.8,2.9-0.9,4.2-1.9c1.7-1.3,3.7-2.1,5-3.9c0.1-0.2,0.5-0.3,0.7-0.4
			c1.1-1.1,2.8-1.3,3.9-2.4c1.2-1.2,2.8-2,4.1-3c1.8-1.4,3.9-2.4,5.9-3.4c1.1-0.6,2.4-0.9,3-2.3c0.2-0.4,0.6-0.4,1-0.6
			c1.5-0.7,3.2-0.1,4.7-1.4c1.2-1.1,1.7-1.5,0.9-3C100.8,237.1,99.9,235.8,99.6,234.4z M12,275.5c0.3,0,0.7,0,0.5,0.5
			c-0.1,0.4-0.3,0.8-0.7,0.9c-0.6,0.2-0.8-0.3-1.1-0.8C11.2,275.8,11.8,275.9,12,275.5z M3.5,278.4c-0.2,0.5-0.5,0.5-1,0.3
			c-0.1,0-0.2-0.1-0.3-0.1c-0.6-0.2-1.2,1-1.6,0c-0.2-0.5,0.6-1.1,0.5-1.8c0-0.3,0.3-0.4,0.6-0.4c0.1,0,0.4,0.2,0.4,0.2
			c-0.2,0.9,0.3,1.1,1.1,1.1C3.6,277.7,3.7,278.1,3.5,278.4z M8.9,292c0.5,0.1,0.8,0.4,0.9,0.9c0.1,0.5-0.3,0.9-0.7,1
			c-0.7,0.1-0.5-0.6-0.6-0.9C8.3,292.5,8.4,292.1,8.9,292z M10.6,296.6c-0.9,0-1.1,0.5-1,1.3c0,0.3,0.6,0.5,0.2,0.8
			c-0.4,0.3-0.9,0.4-1.2,0.6c-0.9-0.1-1.2-0.4-1-1.1c0.2-0.6,0.5-1.1,1.1-1.5c0.5-0.3,0.9-0.7,1.1-1.3c0.1-0.3,0-0.9,0.5-0.7
			c0.5,0.2,0.8,0.5,0.8,1.1C11.2,296.1,11.2,296.6,10.6,296.6z M29.4,288.8c-0.2,0.4-0.5,0.6-0.9,0.5c-0.6-0.1-1.7,1.5-1.4,2
			c0.1,0.1,0.2,0.2,0.3,0.2c1.6-0.5,0.7,0.5,0.6,1c-0.1,1.1-0.9,1.9-1.3,2.9c-0.2,0.3-0.4,0.6-0.8,0.6c-0.4-0.1-0.2-0.5-0.3-0.8
			c-0.4-0.8-0.7-1.6-1.2-2.4c-0.4-0.6-0.8-0.3-1.2,0c-0.4,0.3-0.8,0.5-1.2,0.1c-0.5-0.4,0.1-0.8,0.3-1.1c0.5-0.8,0.8-1.8,2.2-1.5
			c0.7,0.1,1.1-0.7,0.8-1.4c-0.5-1.6,0.7-2.6,1.2-4.1c0.5,0.7,0.2,1,0.1,1.3c-0.2,0.4-0.6,0.9-0.2,1.3c0.4,0.5,0.9,0.1,1.3-0.1
			c0.6-0.3,1.1-0.2,1.6,0.3C29.6,288,29.6,288.4,29.4,288.8z"/>
		<path d="M164.5,300.3c-4.5-1.7-7.1-5.2-9.2-9.3c-3.1-6.1-4.5-12.4-4.5-19.2c0-7,0.7-14,1.3-21c0.4-4.9,0.8-9.8,1.2-14.7
			c0.1-1.5,0.5-2.9,0.8-4.3c1.2-5,2.6-10,4.9-14.6c1.7-3.3,3.3-6.7,5.7-9.7c1.4-1.8,2.6-3.8,4-5.6c2.1-2.5,4.3-5,6.5-7.5
			c0.2-0.2,0.3-0.5,0.8-0.4c-1.4,1.8-2.7,3.6-4.2,5.3c-2.8,3.4-5.6,6.7-7.6,10.7c-0.3,0.7-0.7,1.4-0.9,2.1c-0.3,0.8-0.6,1.5-1.3,2
			c-0.5,0.3-0.6,0.9-0.7,1.4c-0.5,1.5-0.9,2.9-1.4,4.4c-0.1,0.4-0.4,0.5-0.6,0.6c-0.4,0.3-0.6,0.7-0.6,1.1c0,0.9,0.5,2-1,2.3
			c-0.1,0-0.2,0.6-0.2,0.9c0,0.6-0.1,1.1-0.5,1.6c-0.5,0.6-0.6,1.4-0.4,2.1c0.3,1,0,1.8-0.7,2.6c-0.5,0.6-0.6,1.1-0.3,1.9
			c0.4,1.1,0.3,2.2-0.6,3.1c-0.5,0.4-0.7,0.9-0.3,1.5c0.1,0.1,0.2,0.3,0.1,0.4c-0.8,1.8,0.7,3.3,0.7,5.1c0,0.3,0.1,0.6,0.2,0.9
			c0.1,0.3,0.3,0.7,0.7,0.7c0.4,0,0.4-0.4,0.5-0.7c0.1-0.5,0.3-0.8,0.9-0.8c0.6,0,0.9,0.3,1.1,0.8c0.1,0.2,0.1,0.4,0.2,0.6
			c0.2,0.5,0.5,0.8,1.1,0.8c0.5,0,1-0.2,1.1-0.7c0.3-1.1,1-1.4,2-1.4c0.3,0,0.6,0,0.8-0.2c1.1-0.9,2.3-0.7,3.5-0.4
			c1,0.3,1.2,0,1.1-1c-0.3-2.4-0.5-4.7-1.3-7c-0.5-1.4,1.3-3.7,2.7-3.8c0.5-0.1,0.9,0.1,1.2,0.4c0.9,1,2,0.9,2.8-0.3
			c1.1-1.7,1.3-1.7,2.6-0.2c1,1.1,2,2.3,2.3,3.8c0.1,0.4,0.4,0.7,0.6,1c0.2,0.3,0.4,0.5,0.8,0.4c0.4-0.1,0.2-0.5,0.2-0.8
			c-0.1-1,1.8-3.6,2.8-3.8c0.5-0.1,0.8,0.1,1.1,0.4c0.7,0.8,1.5,1.5,2,2.4c0.6,1,1.8,1.5,2.1,2.8c0,0.2,0.4,0.2,0.5-0.1
			c0.1-0.2,0.1-0.3,0.2-0.5c0.2-0.5,0.3-1.2,1-0.9c0.6,0.2,0.5,0.8,0.4,1.3c-0.2,2.2-1.2,4.1-3.1,5.3c-1.3,0.8-2.4,1.8-3.3,3
			c-0.8,1-1.7,1.5-2.9,0.7c-0.4-0.3-0.9-0.3-1.2,0.2c-0.4,0.7-0.9,0.7-1.4,0.2c-0.7-0.7-1.6-0.1-2.4-0.6c-0.3-0.2-0.4,0.4-0.4,0.6
			c-0.1,2.2-0.1,4.4-0.2,6.7c-0.1,2.8,0.3,5.6,0.4,8.5c0.1,1.9,0.3,3.9,0.1,5.8c-0.1,0.8,0,1.6-0.7,2.2c-0.2,0.2-0.4,0.5-0.1,0.7
			c1,1,0.6,2.5,1.2,3.6c0.5,0.9-0.1,1.8,0,2.8c0.2,2.7,0.2,5.3,0.3,8c0,0.7,0,1.5-0.2,2.2c-0.2,0.5-0.3,1.2-1.1,0.4
			c-0.8-0.7-3.3-0.1-3.9,0.7c-0.1,0.1-0.1,0.2-0.1,0.2c-1.5,1-3.3,1.5-4.6,2.7c0,0-0.1,0-0.1,0c-0.8,0-1.6-1.4-2.2-0.1
			c-1.1,2.3-0.8,4.1,0.6,5.3c0.5,0.4,1.1,0.8,1.7,1.3c0.6,0.5,1.3,0.5,2,0.1c0.8-0.5,1.6-0.6,2.4-0.2c0.7,0.3,1.3,0.2,1.9-0.2
			c1.5-1.1,3.2-0.8,4.8-0.9c0.4,0,0.4,0.4,0.5,0.7c0.2,0.5,0,1-0.4,1.3c-1,0.6-2.1,1.2-3.1,1.8c-0.3,0.2-0.6,0.4-0.9,0.5
			C170.9,300.3,167.7,300.3,164.5,300.3z"/>
		<path d="M130.9,300.3c1.2-3.4,0.7-7.1,2-10.5c0.5-1.4,1.2-2.7,1.5-4.2c0.3-1.7,0.5-3.4,0.6-5.2c-0.3,0-0.8,0.6-0.9-0.3
			c-0.2-1-1.1-1.9-0.3-3c0.4-0.5,0.9-0.8,1.3-1.4c1.2-1.5,1-3.4,1.4-5c0.4-1.7,0.8-3.5,0.6-5.1c-0.2-1.4,1.1-2.8-0.1-4.2
			c-0.1-0.1,0-0.4,0.1-0.5c1.9-1.5,1.6-3.9,2-5.8c1.8-8,3.1-16,6.2-23.6c2.6-6.6,5.5-13.1,9.2-19.1c1-1.6,2.2-3.2,3.3-4.7
			c1.2-1.6,2.5-3.1,3.7-4.7c1.1-1.5,2.6-2.5,3.9-3.8c2.1-2,4.5-3.5,7.1-4.8c-1.4,1.2-2.8,2.5-4.2,3.7c-2.8,2.4-5.8,4.6-7.7,7.8
			c-2.9,5.1-5.6,10.2-8,15.6c-3.1,6.9-4.8,14.2-6.5,21.5c-0.7,3.1-1.9,6.2-1.5,9.3c0.4,3.5-1.5,6.3-2.1,9.4
			c-0.8,4.3-1.5,8.6-2.5,13.2c1-0.6,1-1.5,1.3-2.2c0.4-0.7,0.8-1.7,1.6-1.5c0.9,0.3,1,1.3,0.8,2.3c-0.4,2.7-1.4,5.2-2.1,7.8
			c-0.6,2.2-0.8,4.7-1.6,6.8c-0.7,1.7-0.9,3.5-1.5,5.2c-0.7,2.3-1.4,4.6-1.8,7C134.8,300.3,132.9,300.3,130.9,300.3z"/>
		<path d="M56,300.3c0-1.2,0.1-2.3,1.8-2.2c0.2,0,0.5-0.2,0.6-0.3c1-2.2,3.3-2.1,5.1-2.8c0.3-0.1,0.6-0.2,0.9-0.3
			c0.2-0.1,0.5-0.3,0.5-0.6c0-0.3-0.3-0.2-0.5-0.3c-0.5-0.1-0.9-0.4-0.8-0.9c0.1-0.7,0.6-0.2,0.9-0.2c0.5,0,0.6-0.3,0.4-0.7
			c-0.4-1.2,0-1.9,1.2-2.1c0.5-0.1,0.8-0.5,1.1-0.9c1.3-2,2.6-3.9,4.2-5.7c0.1-0.2,0.3-0.4,0.4-0.5c0.7-0.5,1.7-0.5,2.3-0.1
			c0.6,0.4-0.1,1-0.3,1.5c-1.9,2.7-2.9,6-5.1,8.6c-1.7,2-3.6,3.8-5.4,5.6c-0.6,0.6-1.2,1.3-1.8,2C59.6,300.3,57.8,300.3,56,300.3z"
			/>
		<path d="M0.3,274.1L0.3,274.1c0.5-0.2,1-0.3,1.6-0.2c0-0.9,0-1.9,0.1-2.8C1.4,272,0.8,273.1,0.3,274.1z"/>
		<path d="M147.4,47.3c0.2-1.8,0.5-3.6,0.7-5.4c0.1-0.7-0.2-0.9-0.7-1c-0.3,0-0.7,0.1-1.1,0.1c-0.6-0.1-1.3-0.4-1.5-1
			c-0.2-0.7,0.7-0.5,1-0.7c1.2-0.7,2.4-1.8,4-1.1c0.2,0.6-0.9,0.4-0.5,1c0.3,0.4,0.8,0.5,1.3,0.4c0.7-0.1,1.4-0.2,2.2,0.4
			c-0.7,0-1.2-0.1-1.6-0.1c-0.3,0-0.7,0-0.8,0.4c-0.1,0.4,0.2,0.6,0.4,0.8c0.2,0.2,0.5,0.4,0.8,0.5c1,0.1,1.6,0.7,2.1,1.5
			c0.3,0.5,0.9,0.8,1.4,0.9c0.4,0.1,0.9-0.2,0.5-0.6c-0.6-0.6-0.8-1.4-1.7-1.7c-0.7-0.2-0.9-0.7-0.1-1.1c0.5-0.2,0.3-0.6,0.3-0.9
			c-0.2-1.6,0.1-1.9,1.9-1.8c-0.2,0.6-1,0.1-1.1,0.7c1.1,0.8,2.6,0.9,3.4,2.2c0.2,0.3,0.7,0.3,1.1,0.4c1.8,0.4,3.8,0.4,4.6,2.5
			c1.2-0.4,1.8,1.7,3.1,0.6c0.2-0.1,0.5-0.3,0.6-0.1c0.6,1.2,2.1,1.4,2.6,2.7c-0.9-1-2.3-0.6-3.2-1.3c-0.3-0.2-0.6,0-0.4,0.5
			c0,0.1,0.1,0.2,0.1,0.2c0.8,1.5,0.8,1.5-1,1.7c1.1,0.7,2.2,1.2,3,2c1,0.9,2.6,1.4,2.4,3.2c0,0.1,2.2,1,2.3,0.9
			c0.3-0.2,0.3-0.5,0-0.8c-0.3-0.3-0.7-0.5-0.9-1.2c1-0.1,1.5,0.6,2.1,1.1c0.6,0.6,0.9,1.4,2.1,0.8c0.5-0.2,0.9,0.5,1.3,0.9
			c0.7,0.6,1.4,1.3,2.1,2c0.2,0.2,0.5,0.5,0.8,0.2c0.2-0.3,0-0.6-0.2-0.8c-0.8-0.7-1.7-1.4-2.7-2.2c0.8-0.1,1.1,0.3,1.5,0.6
			c0.5,0.3,1,1.1,1.6,0.1c0.2-0.3,0.6-0.1,0.7,0.1c0.4,1.6,2.1,1.8,3,2.9c0.4,0.5,0.9,0.8,1.4,1.3c0.2-0.9-0.3-1.7-0.3-2.7
			c0.8,0.4,1,1.3,1.7,1.7c0.6-0.7,0-1.4,0-2.1c0.3,0.2,0.5,0.3,0.8,0.4c0.4,0.1,0.8,0.5,1.1,0.2c0.4-0.3-0.1-0.7-0.2-1.1
			c-0.2-0.4-0.1-0.9-0.1-1.5c-1.2,0.9-1.6,0.3-1.7-0.8c1.5-0.3,2.8-0.1,3.9,1c0.4,0.4,0.9,0.5,1,1.1c0,0.3,0.1,0.6,0.4,0.6
			c2,0.1,2.1,1.9,2.7,3.2c0.1,0.2,0.1,0.4,0.2,0.6c0.1,0.3,0.4,0.6,0.7,0.5c0.3-0.1,0.3-0.4,0.3-0.6c0-1,0.6-0.8,1.1-0.5
			c1.2,0.7,1.5,1.9,1.6,3.2c0,0.6-0.1,1.1,0.7,1.8c-0.3-4,0.2-7.8-1.6-11.7c2.6,1.5,3.6,4,5,6.1c-0.3-1.9,0.6-3.9-0.8-5.9
			c0.8,0,1,0.4,1.1,0.8c0.8,1.8,1.5,3.7,1.5,5.7c0,0.5-0.2,0.8-0.5,1.2c-0.2,0.2-0.8,0.9,0.3,0.7c0.3,0,0.2,0.3,0.3,0.5
			c0,0.3,0,0.7,0.1,0.9c0.7,1,0.4,2-0.3,2.9c-0.8,1.1-0.4,1.4,0.8,1.2c-0.7,1.5-2.1,1.2-3.1,1.2c-1,0.1-2.1,0.1-3.1,0.3
			c-0.6,0.1-1.2,0.2-1.7-0.3c-0.4-0.4-0.9-0.2-1.1,0.2c-0.6,1.4-2.1,1.9-3,2.9c-0.2,0.2-0.3,0.2-0.6,0.2c-1.1-0.1-1.1,0-1.4,1.1
			c-0.5-0.7-1-0.7-1.7-0.3c-2.1,1.2-4.5,0.8-6.7,0.6c-0.9-0.1-1.6,0-2.4,0.3c-1.5,0.5-2.9,0.8-4.4-0.3c-2.1-1.5-4.7-1.6-7.2-2
			c-1.5-0.3-2.9,0.1-4.5,0.5c-2.8,0.8-5.3,2.4-7.9,3.6c-0.8,0.4-1.6,0.2-2.4,0.1c-1.9-0.2-3.7-0.9-5-2.5c-0.8-1-1.8-1.7-3-1.7
			c-1.7,0.1-2.7-0.9-3.9-2c-1-0.9-2.4-1-3.5-1.5c-0.6-0.3-0.8,0.5-1,1c-1,2.2-2.3,4.2-3,6.5c0.7-2.2,0.7-4.6,2.1-6.6
			c0.3-0.4,0.1-0.8,0.2-1.1c0.5-2.3,0.5-4.4-0.1-6.8c-0.9-3.3-1.4-6.9,0-10.4c0.6-1.4,0.7-3,1.1-4.5c0.2-0.7,0.5-1.4,1-2
			c0.2-0.3,0.3-0.7,0.8-0.6c0.3,0.1,0,0.6,0.3,0.9c0.4,0,0.6-0.9,1.3-0.5c0.5,0.3,0.7,0.6,0.7,1.3c0,0.5,0.5,0.8,0.8,1.2
			c0.1,0,0.2-0.1,0.2-0.1c0.3-0.4,0.3-1.3,0.9-1.1c0.7,0.1,0.2,0.9,0.4,1.4c0.1,0.4-0.1,0.9,0.3,1.3c0.4-0.3,0.1-0.9,0.5-1.2
			c0.8,1.1-0.1,2-0.4,2.9C146.6,48.3,146.5,47.1,147.4,47.3c-0.1,2.9,2.2,4.7,3.4,7.1c0.1-0.6,0.1-1.1-0.2-1.7
			c-0.5-0.9-0.9-1.9-1.2-2.9c-0.2-1,0.2-1.5,0.9-1.8c1.2-0.5,2.3-0.8,2.9,0.9c0.3,1,1.2,1.8,1.7,2.6c0.2,0.4,0.3,0.9,0.7,1.1
			c0.6,0.5,1.5,0.9,2,0.4c0.5-0.5-0.2-1.2-0.8-1.6c-0.4-0.3-0.9-0.6-0.8-1.3c0.7,0.3,1.2,0,1.2-0.7c-0.1-0.9-0.4-1.9-1.2-2.2
			c-0.8-0.3-1-0.2-1-0.8c-0.1-1.4-1-2.3-2-3.1c-1-0.8-2.1-1.4-2.9-2.3c-1-1.2-1.1-0.3-1.3,0.4c-0.2,0.4-0.2,0.9-0.3,1.3
			C148.2,44.3,148.2,45.9,147.4,47.3z M164.2,51.8c0.2-0.6,0.4-0.9,0.9-0.4c0.2,0.2,0.6,0.4,0.8,0c0.2-0.3,0-0.6-0.2-0.8
			c-0.9-0.8-1.8-1.6-2.8-2.4c-0.2-0.2-0.5-0.3-0.9,0C163.5,49,163.2,50.6,164.2,51.8z M167.1,52.3c0.4,1.7,1.6,2.8,3.2,3.5
			c-0.6-0.7-1.2-1.4-1.7-2.1c0.4-0.6,0.8,0.1,1.3-0.1C169.2,52.5,167.9,52.9,167.1,52.3z M143.7,48.2c0.4,1.2,0.1,2.3,0.8,3.3
			C145.3,50.1,145,48.9,143.7,48.2z M146.8,57.5c0.2,0.9,0.4,1.8,1.3,2.6C147.9,59,147.8,58,146.8,57.5z"/>
		<path d="M140.4,202c0.1-1.1,1.1-1.1,1.8-1.6c0.5-0.3,1.4-0.7,1-1.3c-0.5-0.7-1,0.2-1.5,0.4c-0.3,0.2-0.7,0.4-1.1,0.6
			c1-1,0.7-2.3,0.4-3.4c-0.7-2.8,0.4-5.1,1.6-7.5c0.9-1.8,2.3-3.4,2.3-5.5c0-0.5,0.4-0.9,0.6-1.3c1.2-2.8,2.8-5.4,3.8-8.4
			c0.4-1.3,1.7-2.2,2.3-3.5c0.4-0.8,0.8-1.5,1-2.3c0.2-0.8,0.4-1.6,1-2.3c0.7-0.9,0.2-3.8-0.7-4.6c-0.1-0.1-0.3-0.1-0.3-0.2
			c-0.8-2.6-3.3-2.1-5.1-2.7c-1.9-0.7-4-1.1-5.9-1.9c-1.8-0.7-3.8-1.2-5.3-2.9c-1.7-1.9-2.2-4-2.2-6.4c1.5-0.9,0.9-2.1,0.7-3.3
			c0-0.1,0.2-0.2,0.2-0.3c0.5,0.2,0.5,0.7,0.7,1c0.7,1.2,1.1,1.3,2,0.3c0.2-0.2,0.4-0.4,0.7-0.4c1.4,0.1,1.3,1.5,2,2.3
			c0.5,0.5,0,0.9-0.5,1.3c-1.1,0.8-1.2,3.7-0.2,4.5c0.7,0.6,1.5,0.4,2.1-0.3c0.7-0.8,1.6-1.4,2.6-1.7c1-0.3,1.8-0.1,2.1,1
			c0.2,0.9,1.1,1.6,1.1,2.7c0,0.7,1.2,0.3,1.5,0.9c0.5,0.9,1,0.4,1.5,0.1c0.8-0.5,0.9-0.5,1.3,0.6c0.7-1.7,2.2-1.1,3.4-1.4
			c0.4-0.1,0.3,0.3,0.3,0.6c-0.1,0.4,0.2,0.8,0.5,1c0.2,0.2,0.5,0.3,0.7,0.1c0.2-0.2,0.1-0.4,0-0.6c-0.3-0.3-0.5-0.7-0.3-1.1
			c0.1-0.4,0-1.1,0.6-1.1c0.6,0,0.3,0.6,0.4,1c0.1,0.6,0.5,1,1,1.1c1.6,0.2,3.4,0.9,4.8-0.7c0.3-0.3,0.7-0.4,1.1-0.3
			c1.2,0.3,2.3-0.1,3.3-0.9c1.4-1,3.2-1.2,4.7-2.1c1-0.6,2-0.8,3.2-0.6c0.3,0,0.5,0.1,0.6,0.4c0.1,0.3,0,0.6-0.2,0.7
			c-1.6,0.5-1.9,2.1-2.7,3.2c-0.8,1.2-1.7,2.4-2.7,3.5c-1.5,1.8-1.3,3.8,0.3,5.3c0.2,0.2,0.4,0.5,0.6,0.7c0.7,0.9,1.5,1,2.4,0.3
			c0.3-0.2,0.7-0.5,1-0.6c0.8-0.4,1.2-0.3,1.5,0.7c0.4,1.2,0.6,2.2-0.3,3.3c-0.4,0.4-0.4,1.3-0.5,1.9c-0.1,1.6-0.4,3-1.4,4.3
			c-0.3,0.4-0.3,0.9,0.2,1.1c1.3,0.6,0.5,1.4-0.1,1.6c-1.8,0.9-3,2.5-4.6,3.6c-2.1,1.4-4.3,2.2-6.6,3c-2.4,0.8-4.2,2.3-5.6,4.4
			c-1.8,2.7-4.1,5-6.9,6.9c-2.7,1.8-5.2,4-7.9,5.8C141.7,201.3,141,201.6,140.4,202L140.4,202z"/>
		<path d="M112.8,267.2c0.3-1.2,0.7-2.3,0.9-3.6c0.5-3,1.6-5.8,1.8-8.9c0.1-1.1,0.1-2.1-0.1-3.2c-0.6-3.3,0.4-6.1,2.6-8.6
			c1.3-1.4,3.4-1.5,4.5-3.3c0.2-0.3,0.5,0.1,0.7,0.3c0.9,1.2,2.2,2,3.5,2.8c1.5,0.9,2.8,2.1,4.2,3.2c0.7,0.6,0.5,1.3,0.2,2.1
			c-1,3.1-2,6.2-2.9,9.4c-1.4,4.7-2.4,9.5-3,14.3c-0.3,2.5-2,4-3.7,5.5c-0.5,0.4-0.8,0.2-0.8-0.3c-0.4-3-2.6-4.6-4.9-6.2
			c-0.9-0.6-1.7-1.4-2.4-2.3C113.1,268.2,112.9,267.7,112.8,267.2z"/>
		<path d="M128.2,177.6c-0.6,1.6-1.8,2.8-2.7,4.2c-1.7,2.4-2.7,4.9-2.3,7.8c0.1,0.8,0.4,1.5,0.6,2.2c0.2,0.8,0.9,0.8,1.5,0.7
			c0.7-0.1,0.8-0.6,0.9-1.2c0-0.4,0-0.8,0-1.2c-0.1-1.2,0.6-2.2,1.8-2.4c2.1-0.4,3.4-2.3,5.3-3.1c0.2-0.1,0.2-0.4,0.4-0.5
			c0.1-0.1,0.1-0.3,0.2-0.4c1.2-1.2,2.4-2.5,3.6-3.7c0.2-0.2,0.5-0.4,0.8-0.2c0.3,0.2,0.2,0.6,0.1,0.9c-0.8,1.5-0.7,3.2-1.1,4.7
			c-0.1,0.4-0.2,0.8-0.6,1.2c-0.3,0.3-0.7,0.5-0.8,0.9c-1.4,3.3-3.8,6.4-2.6,10.4c0.2,0.6,0.1,1.1-0.1,1.7c-0.5,1.4,0.1,2.5,1.5,3
			c0.2,0.1,0.4,0.1,0.5,0.2c0.5,0.4,1.5,0.6,1.4,1.2c0,0.6-0.9,0.7-1.4,1c-2.5,1.2-5,2.7-7.9,2.9c-2.9,0.2-5.9,0.3-8.7-0.4
			c-2.9-0.8-5.1-2.6-6.4-5.4c-0.3-0.5-0.2-1,0.1-1.5c1.3-2,2.5-4,3.8-6c0.2-0.3,0.7-0.6,0.2-1c-0.3-0.3-0.7-0.2-1.1,0
			c-0.8,0.5-1.9,0.8-2.5,1.8c-0.4-0.8-0.3-1.2,0.4-1.5c1.6-0.7,3.1-1.5,3.4-3.6c0.1-0.4,0.7-0.8,1.2-1c4.2-2.3,6.5-6.3,9.4-9.8
			C127.2,178.9,127.5,178.1,128.2,177.6L128.2,177.6z"/>
		<path d="M269.1,272.7c-0.5,0.3-0.8-0.2-1-0.6c-0.3-0.5-0.4-1-0.6-1.5c-0.1-0.4-0.4-0.5-0.8-0.5c-0.6,0-0.3,0.4-0.4,0.6
			c0,0.3-0.1,0.5-0.4,0.6c-0.3,0-0.4-0.2-0.5-0.4c-0.2-0.4-0.4-0.8-0.8-1.1c-0.6-0.4-0.6-0.6-0.1-1.2c0.8-1,1.9-2,0.9-3.6
			c-0.2-0.4,0-0.9,0.1-1.3c0.3-1.5-0.6-2.8-2.3-3.2c0.4,0.4,0.7,0.7,0.9,1c0.2,0.3,0.5,0.7,0.1,0.9c-0.3,0.3-0.6-0.1-0.9-0.3
			c-1.9-1.5-2.5-3.3-1.6-5.5c0.1-0.3,0.2-0.4-0.1-0.6c-1.5-0.9-2.2-2.3-2.5-3.9c-0.3-1.6-0.5-1.7-2.1-1.1c-0.4,0.1-0.8,0.1-1.2,0.2
			c-0.3,0.1-0.5,0.2-0.7-0.1c-0.2-0.3,0-0.5,0.2-0.7c0.6-0.6,0.8-1.3,0.5-2.1c-0.1-0.3-0.2-0.6,0-0.9c0.8-1.2,0.6-2.3,0.1-3.5
			c-0.5-1,0.1-2.8,1.1-2.9c1.3-0.1,2.4-1.1,3.7-0.6c0.4,0.1,0.8-0.1,1-0.4c0.4-0.4,0-0.6-0.2-0.9c-0.2-0.2-0.2-0.3-0.3-0.5
			c-0.5-0.4-1.1-0.7-1.7-1c0.2,0.7,0.5,1.3,0.5,1.9c-0.3,0.1-0.5,0-0.6-0.1c-1.5-1.6-1.5-1.6-2.6,0.4c-0.2,0.3-0.3,0.5-0.7,0.5
			c-0.4,0-0.7-0.3-0.7-0.7c0.1-0.7-0.4-1.2-0.5-1.7c-0.2-0.9-0.6-0.9-1.2-0.6c-0.8,0.3-0.6,0.9-0.3,1.4c0.4,0.6,0.9,1.2,1.3,1.9
			c0.5,0.7,0.4,1.3-0.5,1.7c-1.2,0.4-1.6,1.4-0.8,2.5c0.4,0.5,0.4,0.7-0.1,1c-0.5,0.3-0.5,0.8-0.9,1.2c-0.4,0.4-0.5,1.5-1.1,1.2
			c-0.8-0.4-0.1-1.1,0.2-1.7c0.1-0.2,0.2-0.4,0-0.6c-0.1-0.2-0.3-0.1-0.5,0c-0.8,0.4-2.3,2.9-2,3.7c0.4,1.3,0.5,2.4-0.8,3.2
			c-0.3,0.2-0.3,0.5-0.3,0.9c0.1,0.4-0.1,0.8-0.4,1.1c-0.3,0.2-0.5,0.6-0.9,0.4c-0.4-0.2-0.3-0.6-0.2-0.9c0.3-0.6,0.1-1.3,0.5-1.9
			c0.1-0.1,0.1-0.4,0-0.5c-0.2-0.3-0.4-0.1-0.6,0c-1.3,0.5-1.8,1.7-2.2,2.8c-0.1,0.4-0.2,1.1,0.7,1.1c0.5,0,0.8,0.2,0.2,0.7
			c-0.3,0.2-0.1,0.6-0.1,0.9c0,1,0.7,1.7,1.2,2.4c1.1,1.6,2.3,3,3,4.8c0.1,0.3,0.4,0.8,0.9,0.6c0.5-0.2,0-0.6,0-0.9
			c0-1.1,0-2.2,0-3.3c0.6,0,0.4,0.8,0.9,0.8c0.5-1.8,0.2-2.4-1.4-2.9c-0.7-0.2-0.9-0.6-0.9-1.2c-0.1-1.1,0.3-2.2,0.4-3.3
			c0-0.4-0.2-0.9,0.3-1.1c0.6-0.2,1,0.4,1.5,0.7c0.4,0.2,0.3,0.7,0,1.1c-0.7,0.8-0.5,1.5,0,2.4c0.5,0.8,1.1,1.3,1.8,1.9
			c0.7,0.6,1.3,1.3-0.1,1.9c-0.4,0.2-0.3,0.5-0.2,0.8c0.3,1.5,0.4,3.1,0.5,4.6c0.1,1.3,0.4,2.4,1.6,3.3c1.7,1.3,3.2,2.9,4.7,4.4
			c1.5,1.4,2.5,3.4,4.4,4.5c0.5,0.3,1.1,1.2,1.6,1.8c0.4,0.6,0.9,1.1,1.8,0.6c0.4-0.2,1.2-0.4,1.6,0.1c0.4,0.5-0.3,0.8-0.5,1.3
			c1.3-0.4,0.9-1.4,1-2.1c0.4-1.6,0.8-3.3-0.3-4.9c-0.3-0.4-0.6-0.9,0.4-0.9c1.1,0,1.3-0.6,0.8-1.6
			C270,272.7,269.9,272.2,269.1,272.7z M246.8,258.6c-0.5-0.1-0.7-0.5-0.6-0.6c0.5-0.5,0.1-1.5,0.8-1.7c0.4-0.1,0.6,0.4,0.6,0.8
			C247.6,257.8,247,258,246.8,258.6z M252.5,256.6c-0.7-0.2-0.4-0.9-0.5-1.3c0-0.7,0.3-1.3,1-1.3c0.5-0.1,0.9,0.5,1,1
			C254.1,255.3,252.8,256.6,252.5,256.6z M261,275.1c-0.6-1.2-2.1-1.8-2.1-3.4c0-0.4-0.1-0.9,0.4-1c0.6-0.2,0.5,0.4,0.7,0.7
			c0.7,1,1.4,1.9,1.5,3.4C261.5,275,261.2,275.5,261,275.1z M265.2,274.7c-0.7,0-0.5-0.7-0.6-1.1c-0.1-0.4,0-0.9,0.5-0.9
			c0.5,0,0.7,0.5,0.7,0.9C265.8,274.1,265.8,274.7,265.2,274.7z"/>
		<path d="M170.8,109.6c0.9-0.2,1.5-0.1,2,0.2c0.2,0.1,0.5,0.3,0.4,0.6c-0.1,0.3-0.4,0.4-0.6,0.4c-1.1-0.2-2.2,0-3.2-0.5
			c-1.5-0.8-2.3-0.4-2.7,1.1c-0.2,0.8-0.8,1.1-1.5,0.8c-1.8-0.7-3.7-1.3-5-2.9c-0.2-0.2-0.4-0.4-0.6-0.5c-2.8-1.9-3.2-4.5-1.2-7.3
			c0.1-0.1,0.1-0.1,0.1-0.2c1-3.4,3.9-2.7,6.3-2.9c2.4-0.2,4.7,0.4,7,0.4c1.5,0,2.6,0.7,3.5,1.7c0.6,0.6,1.1,1,1.9,0.9
			c0.4,0,1.1-0.3,1.1,0.5c0,0.6-0.7,0.8-1.2,0.5c-1.9-0.8-4-0.5-6-0.8c-0.7-0.1-1.3-0.2-2,0.2c-0.2,0.1-0.5,0.3-0.5,0.6
			c0,0.4,0.3,0.3,0.5,0.5c2.1,1.2,4.5,1.6,6.8,2.3c2.3,0.7,4.1,2,6,3.3c0.3,0.2,0.8,0.5,0.5,1c-0.3,0.5-0.7,0-1-0.2
			c-1.4-0.6-2.7-1.3-4.1-1.8c-1.4-0.5-2.9,0.1-4.3,0C173.1,108.6,171.7,108.5,170.8,109.6z M173.2,100c-0.9-0.3-1.7-0.9-2.7-0.5
			C171.4,99.7,172.2,100.4,173.2,100z M169.4,105c-0.1-0.6-0.5-0.8-1-0.9c-0.3,0-0.6,0.1-0.5,0.4c0.1,0.7,0.7,0.7,1.2,0.8
			C169.3,105.5,169.4,105.3,169.4,105z"/>
		<path d="M136.6,96.3c0.5-0.1,1.1,0.3,1.8-0.1c0.3-0.1,0.6-0.2,0.6-0.6c0-0.3-0.3-0.4-0.5-0.5c-1.7-0.8-3.2-2.2-5.1-2.6
			c-0.5-0.1-1-0.4-0.9-1c0.2-0.7,0.4-1.5,1.2-1.7c0.5-0.2,1-0.4,1.3,0.3c0.1,0.2,0.3,0.4,0.5,0.4c2.4,0.1,4.4,1.4,6.3,2.4
			c2,1.1,3.9,2.7,5.6,4.3c2.1,2.1,1.9,4.8,0.7,7.4c-0.9,1.9-1.9,3.6-3.2,5.2c-0.2,0.3-0.6,0.5-0.9,0.7c-0.3,0.2-0.7,0.3-1,0
			c-0.3-0.3-0.3-0.6-0.2-1c0.2-0.6,0.5-1.2,0.7-1.9c0.2-0.5,0-1-0.4-1.3c-0.4-0.3-0.8-0.2-1.1,0.1c-1,0.6-1.8,0.4-2.6-0.4
			c-0.6-0.7-1.2-1.9-1-2.9c0.1-0.3,0.1-0.6,0.3-0.9c0.3-0.7,0.1-1.1-0.6-1.4c-1.2-0.6-2.4-1.1-3-2.4c-0.2-0.4-0.5-0.4-0.9-0.2
			c-0.4,0.2-0.8,0.3-1-0.2c-0.2-0.5,0-0.8,0.4-1.2C134.4,96.1,135.4,96.3,136.6,96.3z"/>
		<path d="M157.7,126.3c-1.1,0.2-1.4,1-1.9,1.7c-1.1,1.8-3.1,1.9-4.8,2.6c-1.1,0.5-2.2,0-3.3,0.1c-0.5,0-1.2,0-1.2,0.7
			c0,0.7,0.7,0.6,1.1,0.6c2.5,0.2,4.9,0.8,7.3,1.9c1.1,0.5,2.2,1.3,3.6,1.1c0.2,0,0.5,0,0.6,0.4c-0.1,0.3-0.4,0.3-0.7,0.3
			c-0.5,0.1-0.9,0.2-0.9,0.8c0,0.5,0.2,0.9,0.7,1c0.5,0.1,0.9-0.1,1.2-0.6c0.3-0.4-0.1-1.4,0.8-1.2c1.2,0.3,2.6,0.2,3.6,1.2
			c0.3,0.3,0.2,0.7,0,1.1c-0.2,0.4-0.4,0.8-1,0.7c-0.9-0.2-1.7,0.2-2.5,0.5c-1.3,0.5-2.6,0-3.9,0.2c-1.3,0.2-2.7,0.3-4.1,0.1
			c-2.4-0.4-4.8-0.5-7-1.8c-0.6-0.3-1-0.3-1.5,0.1c-1.6,1.2-3.5,0.7-4.5-1.1c-1.1-2-1.7-4.2-2.3-6.4c-0.2-1,0.1-1.3,1.1-1.1
			c0.8,0.1,1.6,0.3,2.3,0.7c0.4,0.2,0.7,0.5,0.7,0.9c0,2.3,1.2,3.5,3.2,4.4c0.9,0.4,1.8,1.5,2.8,1.5c2,0.1,3.8,1.7,5.9,0.4
			c0.1-0.1,0.4,0.1,0.6,0.2c0.6,0.2,1.1,0.2,1.7,0.1c0.8-0.1,1.2-0.5,1.2-1.3c0.1-0.8-0.6-1.2-1.2-1.1c-2.2,0.3-4.1-1.3-6.4-0.9
			c-0.5,0.1-1.1-1-1.9-1c-1.7,0-2.9-1.5-4.6-1.7c-0.5-0.1-0.9-1-1-1.6c-0.1-0.5,0.3-0.4,0.6-0.4c0.3,0,0.8,0.2,0.9-0.3
			c0.1-0.4-0.3-0.6-0.6-0.8c-1.4-0.7-2.1-2.1-2.8-3.3c-0.5-0.8-0.2-2-0.7-2.9c-0.1-0.2,0-0.4,0.2-0.4c0.3-0.1,0.5,0.1,0.7,0.3
			c0.8,1.2,1.6,2.3,2.4,3.5c1.4,2.3,3.5,3,6,2c2.7-1.1,5.6-1.1,8.3-1.8C156.9,125.8,157.3,125.8,157.7,126.3z"/>
		<path d="M199.2,94.9c-0.6-0.9-1.1-1.8-1.2-2.9c-0.1-0.8-1-0.9-1.6-1.3c-1.1-0.7-1.2-1.1,0-1.7c0.9-0.5,1.6-1,1.3-2.2
			c-0.1-0.2,0-0.5,0.1-0.6c0.9-0.6,0.9-1.3,0.2-2.1c-0.1-0.2-0.1-0.4,0.1-0.6c0.2-0.2,0.4,0,0.6,0.1c0.3,0.2,0.5,0.8,1,0.5
			c0.4-0.2,0.1-0.6,0.1-1c0-0.3,0-0.6,0.4-0.8c0.6-0.3,0.8,0.3,1.3,0.5c0.3-0.3,0.1-0.7,0-1c-0.1-0.5-0.7-1.2,0.5-0.8
			c0.1,0,0.2,0,0.2,0c0.9-0.6,1-0.6,1.4,0.6c0.3,1,0.2,2.3,1.6,2.7c0.3,0.1,0.2,0.4,0.1,0.7c-0.1,0.3-0.2,0.6-0.6,0.6
			c-0.3,0-0.6-0.2-1,0c1.9,0.9,0.4,2.6,1,3.8c-0.5,0.1-0.8-0.5-1.2-0.2c-0.1,0.1-0.2,0.4-0.1,0.5c0.3,0.5,0.7,0.9,1.1,1.3
			c0.2,0.2,0.5-0.2,0.5-0.4c0.1-0.7,0.4-1.4,0.3-2.1c-0.1-0.5,0.1-0.9,0.5-1.3c0.5,2.4-0.9,4.3-1.6,6.3c-0.4,0.1-0.5-0.3-0.7-0.5
			c-0.3-0.2-0.6-0.2-0.9,0c-0.1,0.1-0.2,0.3-0.2,0.3c1,0.7-1.2,1.5,0.2,2.2c0.6,0.3,0.9,1,0.7,1.9c-0.2-0.1-0.3-0.1-0.4-0.2
			c-0.3-0.3,0-1.2-0.7-1.1c-0.8,0.1-0.4,0.9-0.4,1.3c0,0.9-0.2,1.5-1.1,1.9c-0.3,0.1-0.6,0.3-0.5,0.7c0.1,2.1-1.4,3.2-2.7,4.5
			c-0.7,0.7-0.6,1.7-1.1,2.4c-0.2,0.3-0.1,0.8-0.6,0.8c-0.5-0.1-0.5-0.7-0.4-1c0.7-2.3,0-5,1.7-7c0.8-0.9,0.3-2.1,0.4-3.2
			C197.7,94.5,197.6,94.5,199.2,94.9z"/>
		<path d="M14.4,268.6c0-0.8,0.4-1.3,1.1-1.5c1-0.3,1-0.8,0.5-1.6c-0.5-0.9-0.4-1.9,0-2.8c0.3-0.8,0.6-1.6,1.6-0.7
			c0.2,0.2,0.5,0.1,0.8,0c1.9-0.6,2.5-0.3,3.7,1.5c0.3,0.6,0.8,1,1.5,1c1.1,0,2.1,0.6,3.2,0.9c0.3,0.1,0.7,0.2,0.8,0.4
			c0.4,1,1.1,1.3,2.1,1c0.2-0.1,0.5-0.1,0.6,0.2c0.1,0.4-0.1,0.6-0.4,0.8c-2.2,1.2-4.2,2.6-6.5,3.5c-1.8,0.7-3.7,1.3-4.8,3.2
			c-0.2,0.4-0.7,0.5-1,0.1c-1.1-1.9-2.1-3.8-3.1-5.7C14.4,268.8,14.4,268.7,14.4,268.6z"/>
		<path d="M191.5,184.8c1.1-1,2.1-0.9,3-1.2c4.8-1.3,9.7-1.4,14.3,0.6c3.1,1.3,5.1,3.9,6.7,6.6c2.3,3.9,4.2,7.9,5,12.4
			c0.1,0.4,0.5,1.1-0.1,1.3c-0.4,0.1-0.6-0.4-0.9-0.8c-1-1.6-2.2-3.1-3.1-4.7c-1.2-2.1-2.8-4-3.6-6.4c-0.4-1-0.9-2-1.4-3
			c-1.1-1.9-3-2.7-4.9-3.4c-1.8-0.7-3.7-0.9-5.6-0.9c-1.1,0-2.3-0.1-3.4,0.6c-0.7,0.4-1.5,0.3-2.3,0
			C194.2,185.4,193.1,184.7,191.5,184.8z"/>
		<path d="M112.1,232.3c-0.2-3.3-2.4-5-4-7.1c-0.7-0.9-1.4-1.7-1.8-2.8c-0.1-0.3-0.3-0.8-0.7-0.6c-0.5,0.2-0.1,0.6,0,0.9
			c0.3,1.8,1.7,2.7,2.9,3.8c1.9,1.8,3,3.9,3.4,6.4c0.2,1.3-0.7,2.1-1.1,3.4c-0.6-2.2-2.3-3.2-3.5-4.7c-3-3.7-4.7-7.9-4.5-12.8
			c0-0.2,0.1-0.3,0.1-0.6c1.3,0.6,2.2,1.6,3.2,2.3c1.1,0.8,2.3,1.5,3.8,1.8c2.6,0.4,4.2,2.7,4,5.3
			C113.8,229.3,113.5,230.8,112.1,232.3z"/>
		<path d="M113.4,245.5c0.4,0,0.8-0.4,1.4-0.1c-0.5,1.2-1.3,2.4-1.2,3.8c0,1.2,0.1,2.3,0.4,3.4c0.6,2.7,0.1,5.4-0.5,8
			c-0.3,1.3-0.6,2.5-0.9,4c-0.7-0.8-0.7-1.6-1-2.3c-0.8-2.4-2.3-3.9-4.8-4.6c-0.3-0.1-0.7-0.2-1-0.3c-2.5-0.8-3.1-2.5-1.9-4.8
			c0.6-1,1.4-1.8,2.3-2.5c-0.9,1.4-1.1,3-1,4.6c0.1,0.8,0.5,1.5,1,2.1c0.2,0.3,0.6,0.4,1,0.3c0.5-0.2,0.2-0.6,0.1-0.9
			c-0.7-2.4,0.7-7.2,2.9-8.2c-0.6,1.3-0.9,2.6-0.9,4c0,1.2,0.3,2.4,0.8,3.5c0.7,1.3,1.1,2.6,1.1,4c0,0.3,0.1,0.5,0.5,0.8
			c0.4-1.6,0.4-3.1-0.3-4.4c-0.8-1.5-1-3.1-1-4.8c0-1.9,0.8-3.4,2.2-4.7C112.9,246.2,113.4,246,113.4,245.5L113.4,245.5z"/>
		<path d="M113.4,245.5c0.7-3.6,2-7,3.4-10.3c0.3-0.7,1.3-1.6,0.5-2.3c-0.2-0.2-0.9,1.3-1.2,2c-1.3,3-2.5,6.1-3.3,9.3
			c-0.3,1-0.7,2-2.1,2.8c1-6.7,3.9-12.3,6.4-18.4c0.5,1,0.8,1.8,1.2,2.4c1,1.7,1.7,3.6,3.2,5c0.5,0.5,0.5,1.1,0.3,1.8
			c-0.8,2.3-2.7,3.6-4.7,5.1c1.2-1.9,1.8-3.6,2.4-5.4c0.1-0.4,0.3-1-0.2-1.1c-0.5-0.2-0.6,0.4-0.8,0.7c-1.1,2.4-2.3,4.7-3.8,6.9
			C114.4,244.5,113.8,244.9,113.4,245.5C113.4,245.5,113.4,245.5,113.4,245.5z"/>
		<path d="M169.2,37.2c-0.2,0-0.4,0.1-0.6,0.1c-0.3,0.1-0.7,0.1-0.6,0.5c0.1,0.3,0.4,0.3,0.7,0.3c1.5,0,3.1,0.2,4.6-0.3
			c1.4-0.4,2.2,0.6,3.1,1.4c0.4,0.4,0.8,0.8,1.4,1c0.2,0.1,0.7,0.1,0.5,0.6c-0.1,0.3-0.5,0.4-0.8,0.3c-0.9-0.3-1.9-0.5-2.9-0.6
			c-0.6,0-1-0.7-1.8,0.1c-0.4,0.4-1.7,0-2.7,0c-0.8-0.1-1.5-0.5-2.5-0.1c0.6,0.3,1,0.6,1.5,0.7c1,0.3,1.6,0.8,1.3,2
			c-0.2,0.8,0.9,1.1,0.8,2.1c-0.8-0.7-1.7-1.2-1.3-2.5c0.2-0.6-1.7-1.5-2.3-1.2c-0.3,0.2-0.2,0.4,0,0.5c0.2,0.2,0.7,0.1,1,0.8
			c-0.9-0.3-1.7-0.2-2.3-0.7c-1-0.9-2.2-1.4-3.6-1.5c-0.6-0.1-1.1-0.3-1.3-0.8c-0.4-1-1-0.9-1.7-0.4c-0.2,0.2-0.5,0.2-0.8,0.1
			c-0.4-0.1-1-0.1-1.1-0.6c-0.1-0.5,0.5-0.5,0.8-0.8c1-0.7,2-1.1,3.2-0.8c0.8,0.2,1.2,0.4,0.6,1.2c-0.1,0.2-0.2,0.5-0.3,0.7
			c-0.1,0.3,0,0.5,0.3,0.6c0.3,0.1,0.5,0,0.6-0.4c0.3-1.2,0.7-0.5,1.1-0.1c0.7,0.8,1.5,1.5,2.6,2.1c-0.2-1.1-1.2-1.3-1.7-2
			c-0.2-0.3-0.8-0.6-0.5-1.1c0.3-0.4,0.7-0.2,1.1,0c0.5,0.2,0.9,0.1,1.2-0.2c0.4-0.3,0-0.6-0.1-0.9c-0.3-0.7,0.1-1,0.8-0.9
			c0.5,0,0.9,0.2,1.4,0.3C169.2,37,169.2,37.1,169.2,37.2z"/>
		<path d="M109.4,247.1c0.3-6.2,2.2-12,5.2-17.5c0.4-0.8,1.1-1.5,1.4-2.4c0.3-0.9,0.3-1.7,0.1-2.9c-0.9,1.4-0.1,3.1-1.5,3.9
			c-0.5-0.4-0.2-0.9-0.2-1.4c0-1.4-0.2-2.7-1.5-3.7c-0.2-0.2-0.6-0.4-0.4-0.7c0.1-0.3,0.5-0.3,0.8-0.3c0.5,0,1.1,0,1.6,0
			c1.4,0.1,2.2,0.9,2.1,2.2c-0.1,1.8-0.5,3.4-1.2,5.1c-2.4,5.3-5.2,10.5-5.8,16.5C110,246.6,110,246.6,109.4,247.1z"/>
		<path d="M100.4,223.8c0.9,4.4,2.1,8.5,6.4,11.1c-3.7,0.8-5.9-0.5-6.8-3.7C99.4,228.7,99.9,226.3,100.4,223.8z"/>
		<path d="M102,220.7c0,0.6,0.1,1.3,0.2,1.9c0.7,4.7,3,8.6,6.6,11.6c0.9,0.7,1.2,1.6,1.1,2.7c0,0.3-0.1,0.6-0.4,0.7
			c-0.3,0.1-0.5-0.2-0.5-0.4c-0.4-2.2-2.2-3.2-3.8-4.3c-1.3-0.9-2.1-2.3-2.5-3.8C101.9,226.3,101.5,223.6,102,220.7z"/>
		<path d="M73.9,294.7c-1-2.7,0.7-4.6,1.5-6.7c0.1-0.4,0.5-0.7,0.9-0.7c0.5,0,0.3,0.5,0.5,0.8c0.3,0.5,0,1.9,1.4,0.8
			c0.4-0.3,0.5,0.6,0.3,1c-0.3,0.6-0.7,1.2-1.2,1.7C76.2,292.7,74.9,293.4,73.9,294.7z"/>
		<path d="M134.5,121.5c0.4-1.2,1.2-2.6,2.4-3.5c1.2-0.9,2.3-2,3.9-2.2c0.2,0,0.5-0.1,0.6,0.1c0.1,0.2,0,0.3-0.1,0.5
			c-1.5,1.8-3,3.5-4.5,5.3c-0.3,0.3-0.6,0.5-0.9,0.7c-0.3,0.2-0.6,0.4-1,0.2C134.4,122.5,134.4,122.1,134.5,121.5z"/>
		<path d="M132.1,164.8c0.1-0.4,0.3-0.7,0.6-0.8c2.6-1.3,4.6-3.5,7.1-4.9c0.4-0.2,0.9-0.9,1.2-0.2c0.3,0.5,0.5,1.4-0.3,1.7
			C137.7,162,135.1,163.9,132.1,164.8L132.1,164.8z"/>
		<path d="M145,176.2c0,0.5-0.1,1-0.5,1.2c-0.8,0.4-1.4,1-2.1,1.6c-0.2,0.2-0.5,0.5-0.8,0.2c-0.3-0.2-0.2-0.6,0-0.9
			c0.5-0.9,0.6-1.9,0.7-2.8c0.2-0.8,0.5-1.7,1.4-1.7c1-0.1,0.7,1,1,1.6C144.9,175.7,145,176,145,176.2z"/>
		<path d="M207.3,108c-0.1-0.7-0.2-1.7,0.1-2.8c0.2-0.8,0.6-1,1.3-1c0.8,0,0.7,0.7,0.8,1.2c0.1,1.2-0.1,2.4-0.9,3.3
			c-0.3,0.3-0.5,0.9-1,0.8C207,109.4,207.3,108.8,207.3,108z"/>
		<path d="M208.9,189c-1.8-0.1-3.6,0.1-5.3,1c-1.2,0.6-2.2-0.6-3.3-0.9c-0.3-0.1-0.3-0.4,0.1-0.6c0.2-0.1,0.5-0.3,0.8-0.2
			c2.6,0.1,5.2,0.3,7.8,0.4C208.9,188.8,208.9,188.9,208.9,189z"/>
		<path d="M128.3,177.6c1.2-2.6,3.4-4.5,5.4-6.4c2-1.9,4.2-3.6,6.3-5.3c0.4-0.4,0.9-0.7,1.6-0.7c-1,0.8-2,1.6-2.9,2.5
			c-3.2,2.8-6.7,5.3-9.2,8.8C129.1,177,128.8,177.4,128.3,177.6C128.2,177.6,128.3,177.6,128.3,177.6z"/>
		<path d="M149.8,142.8c-1.6-1.3-3.6-0.5-5.2-1.2c-0.2-0.1-0.4-0.1-0.6-0.2c-0.4-0.2-0.9-0.4-0.7-1c0.1-0.5,0.6-0.4,1-0.4
			C146.4,140.3,148.3,141,149.8,142.8z"/>
		<path d="M145.2,145.8c-0.6,0.1-1.1,0.1-1.6,0.2c-0.4,0-0.9,0.1-0.9-0.4c0-0.5,0.3-0.9,0.8-0.9c1.1,0.1,2.2-0.2,3.3-0.3
			c0.7,0,1.4,0.3,1.3,1c0,0.9-0.8,0.8-1.4,0.7C146.1,145.9,145.6,145.9,145.2,145.8z"/>
		<path d="M171.2,42.3c0.7,1.8,2.4,2.4,3.9,3.2c0.3,0.2,0.7,0.1,0.8,0.5c0,0.4,0,0.9-0.4,1.1c-0.3,0.2-0.7-0.1-1-0.3
			C173,45.6,171.3,44.5,171.2,42.3z"/>
		<path d="M262.8,245.3c0.4,3.2,1.5,6.3,1.2,9.6C263.6,251.7,262.5,248.6,262.8,245.3z"/>
		<path d="M158.8,125.3c0.5-1.3,0.6-2.4,1.4-3.3c0.4-0.4,0.8-0.6,1.4-0.5c0.5,0.1,1.2,0.1,1.2,0.8c0,0.7-0.7,0.3-1.1,0.4
			c-0.8,0.1-1.5,0.4-1.9,1.3C159.7,124.4,159.5,124.9,158.8,125.3z"/>
		<path d="M55.9,294c0.3-1.5,1.2-2.6,1-4c0-0.3,0.2-0.5,0.5-0.5c0.5,0,0.6,0.3,0.7,0.7C58.4,291.4,57.5,293,55.9,294z"/>
		<path d="M75,262.1c-0.8-0.6-1.6-0.9-1.9-1.7c-0.2-0.5-0.2-0.9,0.4-1.2c0.6-0.2,1-0.2,1.2,0.5C74.9,260.4,75,261.1,75,262.1z"/>
		<path d="M266.1,259.6c1.8,0.5,2.7,3.2,1.7,4.6c-0.4-0.2-0.6-0.6-0.7-1c0-0.2-0.1-0.3,0.1-0.5c0.6-0.4,0.6-0.4,0.1-0.8
			C266.6,261.3,266.6,260.5,266.1,259.6z"/>
		<path d="M68.5,235.7c0.3,1.1,0.6,2.3,0.9,3.4c0.1,0.5,0.1,1-0.5,1.1c-0.6,0.1-0.6-0.5-0.7-0.9C68,238.2,68.3,237,68.5,235.7z"/>
		<path d="M176.9,192.9c1.6-2,3.6-3.6,6.1-4.5C180.8,189.7,178.8,191.2,176.9,192.9z"/>
		<path d="M172.2,290.1c0.8-0.4,1.6-0.2,2.2-0.5c0.4-0.2,0.8,0,1,0.3c0.2,0.2,0.2,0.5,0,0.7c-0.3,0.3-0.7,0.5-1.1,0.4
			C173.6,290.8,173,290.5,172.2,290.1z"/>
		<path d="M144.6,266.1c0.3,1,0.1,1.8-0.3,2.6c-0.1,0.3-0.3,0.4-0.6,0.3c-0.3-0.1-0.3-0.3-0.3-0.5
			C143.5,267.6,143.6,266.7,144.6,266.1z"/>
		<path d="M180.4,41.6c1.4,0.8,2.5,1.8,3.2,3.3C182.4,43.9,181.2,43,180.4,41.6z"/>
		<path d="M164.7,125.4c0.5,1,0.9,1.7,1.3,2.4c0.1,0.3,0.2,0.6-0.1,0.8c-0.4,0.2-0.5-0.1-0.7-0.4
			C164.5,127.6,164.6,126.7,164.7,125.4z"/>
		<path d="M201.7,116.2c-0.5,0.5-1,0.8-1.6,1.1c-0.2,0.1-0.5,0-0.4-0.3c0.2-0.6,0.5-1.1,1.2-1.2
			C201.2,115.8,201.5,115.8,201.7,116.2z"/>
		<path d="M187.5,43.2c1,0.8,1.9,1.5,2.9,2.3C189.3,45.6,187.8,44.5,187.5,43.2z"/>
		<path d="M140.3,201.9c-0.6,0.4-1.2,0.7-1.8,1.1c-0.3,0.2-0.7,0.2-0.8-0.1c-0.2-0.4,0.3-0.4,0.5-0.6
			C138.8,201.8,139.5,201.5,140.3,201.9C140.4,202,140.3,201.9,140.3,201.9z"/>
		<path d="M150,269.3c-0.1,0.4-0.3,0.9-0.8,0.8c-0.5,0-0.4-0.5-0.4-0.8c0-0.4,0.1-0.9,0.7-0.8C149.9,268.6,150,269,150,269.3z"/>
		<path d="M53.3,297.7c-0.2-1-0.3-1.7,0.7-2.4C53.9,296.3,54.2,297,53.3,297.7z"/>
		<path d="M191,186c-1.3,0.5-2.4,0.5-3.5,0.6C188.3,185.9,189,185.7,191,186z"/>
		<path d="M206.1,85.5c0.4-1.4-0.5-2.2-1.5-3.4C206.7,83.4,206.8,83.7,206.1,85.5z"/>
		<path d="M66.2,296.9c0,0.5-0.4,0.5-0.6,0.7c-0.3,0.2-0.4,0.7-0.9,0.6c-0.1,0-0.2-0.2-0.1-0.3c0.2-0.4,0.3-0.8,0.7-1
			C65.5,296.8,65.8,296.6,66.2,296.9z"/>
		<path d="M83.7,280.9c0.5-0.6,1-1.2,1.4-1.8C85.4,280.2,84.9,280.9,83.7,280.9z"/>
		<path d="M109.5,239.5c0.1,1.3,0,2.5-0.7,3.6C109.2,241.9,108.9,240.6,109.5,239.5z"/>
		<path d="M132,164.8c-0.8,1-2.1,1.2-3.1,1.8C129.9,165.9,130.7,164.9,132,164.8C132.1,164.8,132,164.8,132,164.8z"/>
		<path d="M186.8,186.9c-1,0.4-2,0.8-2.9,1.2c0.8-1,1.8-1.1,2.8-1.6C186.7,186.6,186.8,186.8,186.8,186.9z"/>
		<path d="M237,235.1c-0.4-0.1-0.7-0.2-1.1-0.2c-0.3,0-0.4,0.6-0.7,0.2c-0.1-0.1,0-0.3,0.1-0.5c0.2-0.4,0.6-0.5,1-0.4
			c0.3,0.1,0.6,0.5,0.9,0.7C237.1,235,237.1,235.1,237,235.1z"/>
		<path d="M267.9,268.9c-0.7-0.1-1.3-0.3-1.4-1.1c0-0.1,0.1-0.3,0.2-0.3C267.5,267.5,267.5,268.4,267.9,268.9z"/>
		<path d="M101.9,255c-0.5-1.4-0.2-2.2,0.9-2.8C102.5,253.1,102.2,253.9,101.9,255z"/>
		<path d="M247.8,241.9c0.2,1-0.2,1.7-0.1,2.5C247.1,243.7,247,243,247.8,241.9z"/>
		<path d="M118.8,178.4c0.1-1,0.6-1.8,1.4-2.4C119.7,176.7,119.2,177.6,118.8,178.4z"/>
		<path d="M238.4,238.5c0.3,0.7,0.5,1.3,0.8,2C238.6,239.9,238.1,239.4,238.4,238.5z"/>
		<path d="M151.8,43.8c1.1,0.4,1.7,1,2.3,1.6c0.3,0.3,0.4,0.9,0,1.2c-0.4,0.3-0.6-0.2-0.8-0.5C152.8,45.5,152.3,44.9,151.8,43.8z"/>
	</g>
</g>
</svg>
